<svg width="40" height="40" viewBox="0 0 40 40" fill="none" xmlns="http://www.w3.org/2000/svg">
    <mask id="mask0_3_953" style="mask-type:alpha" maskUnits="userSpaceOnUse" x="0" y="0" width="40" height="40">
        <rect width="40" height="40" fill="#C4C4C4" />
    </mask>
    <g mask="url(#mask0_3_953)">
        <path d="M33.7232 31.9997L14.0925 37.2305C11.4463 37.9074 8.73864 36.369 8.06172 33.7228L2.83095 14.0921C2.15403 11.4459 3.69249 8.73822 6.33864 8.0613L25.9694 2.83053C28.6156 2.1536 31.3232 3.69206 32.0002 6.33822L37.2309 25.969C37.9079 28.5536 36.3694 31.2613 33.7232 31.9997Z" fill="#E1E4F4" />
        <path d="M22.3384 31.9995V26.338C22.3384 25.6611 21.9692 24.9841 21.3538 24.6764L15.5692 21.3534C14.7692 20.8611 13.723 20.8611 12.923 21.3534L7.13842 24.6764C6.52304 25.0457 6.15381 25.6611 6.15381 26.338V26.7072L8.0615 33.7841C8.18458 34.2149 8.30765 34.5841 8.49227 34.8918L12.923 37.4149C13.2923 37.4149 13.723 37.3533 14.0923 37.2303L17.4153 36.3687L20.9846 34.2764C21.8461 33.7841 22.3384 32.9226 22.3384 31.9995Z" fill="#57617F" />
        <path d="M12.9229 21.2918C13.7229 20.7995 14.769 20.7995 15.569 21.2918L21.3536 24.6149C21.969 24.9841 22.3382 25.5995 22.3382 26.2764V31.938C22.3382 32.8611 21.8459 33.7841 20.9844 34.2149L12.9229 21.2918Z" fill="#8698BF" />
        <path d="M14.277 30.5225C14.277 30.0918 14.0309 29.7225 13.7232 29.5379L7.20007 25.7841C6.7693 25.5379 6.21545 25.8456 6.21545 26.3379V26.7072L8.12315 33.7841C8.24623 34.2149 8.3693 34.5841 8.55392 34.8918L12.9847 37.4149C13.3539 37.4149 13.7232 37.3533 14.1539 37.2302C14.277 37.1072 14.3385 36.9226 14.3385 36.6764V30.5225H14.277Z" fill="#57617F" />
        <path d="M7.13859 24.615L13.2924 21.0458C13.8463 20.7381 14.5847 20.7381 15.1386 21.0458L21.2924 24.615C21.7232 24.8612 21.7232 25.5381 21.2924 25.7843L14.7693 29.5381C14.4001 29.7227 13.9693 29.7227 13.6001 29.5381L7.07705 25.7843C6.70782 25.5381 6.70782 24.8612 7.13859 24.615Z" fill="#BFC6F2" />
        <path d="M24.8616 5.59949L8.61543 10.7072L7.93851 15.261L5.29236 13.7226L4.80005 18.8303L7.20005 20.2456L6.9539 21.9072L8.49236 21.0456L16.8616 25.9072L19.4462 22.0302L13.1077 18.3379L16.3077 16.4918C17.6001 15.7533 19.2001 15.7533 20.4924 16.4918L28.8001 21.4764L32.0616 14.461L24.8616 5.59949Z" fill="#2B2E3A" />
        <path d="M9.72304 18.4612C13.5384 11.1997 20.3077 7.26123 24.923 9.66122C28.1846 11.3843 29.4769 15.8151 28.5538 20.8612C28.4923 21.3535 28.9846 21.6612 29.3538 21.4766L32.8 19.5074C33.6615 19.0151 34.4 18.3381 34.8923 17.4766L31.9384 6.33815C31.2615 3.692 28.4923 2.15354 25.9077 2.83047L6.27688 8.06123C3.63073 8.73815 2.09226 11.5074 2.76919 14.092L6.83073 29.292C6.76919 26.092 7.7538 22.2151 9.72304 18.4612Z" fill="#F97A7A" />
        <path d="M18.8925 19.0151L19.0771 18.7074L18.2156 18.2151C18.154 18.1536 18.0925 18.092 17.9694 18.092C16.554 17.3536 14.4002 18.5843 13.2309 20.8613C12.0617 23.0766 12.0002 25.5382 13.354 26.2766L14.4617 26.892L14.7079 26.4612C16.0002 26.2766 17.5386 25.1689 18.4002 23.5074C19.3233 21.9074 19.4463 20.1228 18.8925 19.0151Z" fill="#2B2E3A" />
        <path d="M19.0769 18.7074C17.6615 17.969 15.5076 19.1997 14.3384 21.4767C13.1692 23.7536 13.1076 26.2151 14.523 26.9536C15.9384 27.692 18.3384 26.4613 19.5077 24.1844C20.6769 21.9074 20.5538 19.4459 19.0769 18.7074Z" fill="#57617F" />
        <path d="M19.3229 21.5998L18.2152 20.9844C17.4767 20.6152 16.4306 21.2306 15.8767 22.3383C15.2613 23.446 15.2613 24.6767 15.9383 25.046L17.046 25.6614L17.5998 24.6767C17.9075 24.4306 18.2152 24.0614 18.4613 23.6306C18.6459 23.2614 18.769 22.8306 18.8306 22.4613L19.3229 21.5998Z" fill="#FFB75E" />
        <path d="M19.3234 21.5998C18.5849 21.2305 17.5387 21.8459 16.9849 22.9536C16.3695 24.0613 16.3695 25.292 17.0464 25.6612C17.7849 26.0305 18.9541 25.4151 19.508 24.3074C20.0618 23.1997 20.0003 22.0305 19.3234 21.5998Z" fill="#FFD385" />
        <path d="M18.4613 21.9691C18.3382 21.9076 18.1536 22.0307 18.0305 22.2153C17.9075 22.3999 17.9075 22.646 18.0305 22.7076C18.1536 22.7691 18.3998 22.646 18.5228 22.4614C18.5844 22.2768 18.5844 22.0307 18.4613 21.9691Z" fill="#57617F" />
        <path d="M18.4613 24.6765C18.3382 24.615 18.1536 24.7381 18.0305 24.9227C17.9075 25.1073 17.9075 25.3535 18.0305 25.415C18.1536 25.4765 18.3998 25.3535 18.5228 25.1689C18.5844 24.9842 18.5844 24.7381 18.4613 24.6765Z" fill="#57617F" />
        <path d="M19.6924 22.7072C19.5693 22.6456 19.3847 22.7687 19.2616 22.9533C19.1385 23.138 19.1385 23.3841 19.2616 23.4457C19.3847 23.5072 19.6308 23.3841 19.7539 23.1995C19.877 23.0149 19.8155 22.7687 19.6924 22.7072Z" fill="#57617F" />
        <path d="M17.2921 24.1229C17.169 24.0614 16.9844 24.1845 16.8614 24.3691C16.7383 24.5537 16.7383 24.7999 16.8614 24.8614C16.9844 24.923 17.2306 24.7999 17.3537 24.6153C17.4767 24.4306 17.4152 24.1845 17.2921 24.1229Z" fill="#57617F" />
        <path d="M14.2771 35.9382L15.631 37.4151C14.831 37.9074 13.7848 37.9074 12.9848 37.4151L12.0618 36.9228L14.2771 35.9382Z" fill="#57617F" />
        <path d="M21.354 25.7841L14.8309 29.538C14.4617 29.7226 14.2771 30.0918 14.2771 30.5226V36.738C14.2771 37.4149 14.954 37.7841 15.5079 37.4764L21.7848 33.8457C22.154 33.661 22.3386 33.2918 22.3386 32.8611V26.338C22.3386 25.8457 21.7848 25.538 21.354 25.7841Z" fill="#8698BF" />
        <path d="M17.4156 29.2916L15.8771 30.1531C15.6925 30.2762 15.5695 30.4608 15.5695 30.6455V35.5685C15.5695 35.8762 15.8772 36.0608 16.1233 35.8762L17.6618 35.0147C17.8464 34.8916 17.9695 34.707 17.9695 34.5224V29.5993C18.031 29.2916 17.6618 29.107 17.4156 29.2916Z" fill="#57617F" />
        <path d="M20.6771 27.4456L19.1386 28.3071C18.954 28.4302 18.8309 28.6148 18.8309 28.7995V33.7225C18.8309 34.0302 19.1386 34.2148 19.3848 34.0302L20.9232 33.1687C21.1078 33.0456 21.2309 32.861 21.2309 32.6764V27.7533C21.2925 27.4456 20.9848 27.261 20.6771 27.4456Z" fill="#57617F" />
    </g>
</svg>
    