<svg width="40" height="40" viewBox="0 0 40 40" fill="none" xmlns="http://www.w3.org/2000/svg">
    <mask id="mask0_3_942" style="mask-type:alpha" maskUnits="userSpaceOnUse" x="0" y="0" width="40" height="40">
        <rect width="40" height="40" fill="#C4C4C4" />
    </mask>
    <g mask="url(#mask0_3_942)">
        <path d="M33.7846 32L14.0308 37.2923C11.3846 38.0308 8.67693 36.4308 7.93846 33.7846L2.70769 14.0923C1.96923 11.4462 3.56923 8.73846 6.21539 8L25.9692 2.70769C28.6154 1.96923 31.3231 3.56923 32.0615 6.21539L37.3539 25.9692C38.0308 28.6154 36.4308 31.3231 33.7846 32Z" fill="#E1E4F4" />
        <path d="M23.3232 16.2463C23.3232 16.2463 22.0924 15.0771 22.154 14.4002C22.2155 13.7233 22.4001 13.354 22.7694 13.4156C23.1386 13.4771 23.5694 14.031 23.6309 14.2771C23.6309 14.5233 23.3847 15.0771 23.6309 15.3848C23.8155 15.6925 24.0617 16.2463 23.3232 16.2463Z" fill="#EF3F54" />
        <path d="M16.4924 22.4C16.4309 22.5846 16.0616 22.4 15.7539 23.6307C15.2616 24.123 15.1385 24.8 15.1385 25.1692V27.7538C15.1385 28.3077 15.3232 28.8 15.6924 29.2307C15.877 29.4153 16.6155 28.9846 16.8616 29.1077C18.8924 30.2769 21.1078 31.3846 21.1078 31.3846C22.277 32.0615 22.8924 33.1077 24.2462 33.1077H25.3539L26.4001 25.0461L16.4924 22.4Z" fill="#57617F" />
        <path d="M15.631 24.923L16.0002 24.7384C16.0002 23.7538 16.3079 22.9538 16.3079 22.9538L17.6002 21.7845L16.3694 22.3999C16.3079 22.5845 16.1233 22.3999 15.8156 23.6307C15.3233 24.123 15.2002 24.7999 15.2002 25.1692V26.0307C15.2002 26.8307 15.2002 27.323 15.2002 27.7538C15.2002 27.7538 15.4463 27.8153 15.4463 27.6307C15.4463 26.5845 15.631 24.923 15.631 24.923Z" fill="#8698BF" />
        <path d="M27.4461 11.0384C26.6461 11.4692 25.9692 12.0846 25.3538 12.7615L21.5999 17.0692C21.3538 17.3769 21.1076 17.6231 20.7999 17.8077L17.1692 20.6384C16.923 20.8231 17.2307 21.3769 17.1076 21.6231C16.923 21.9923 16.3076 22.2384 16.3076 22.6692L16.2461 23.0384C16.2461 23.2846 17.2307 24.0231 17.5384 23.4077C17.7846 22.9769 18.8922 25.6231 19.323 25.8077L22.0307 25.5615C22.7076 25.9307 21.5999 27.4692 22.3999 27.3461L25.4769 27.1C26.0307 27.0384 26.5846 26.8538 27.0769 26.5461L30.8307 24.3923L32.9846 25.0692L36.0615 21.1923L32.5538 8.02306L27.4461 11.0384Z" fill="#BFC6F2" />
        <path d="M34.7077 16.3251L34.5846 16.3866L32.9231 21.1251C32.3692 22.7251 31.2615 24.0174 29.8461 24.8789L27.2615 26.3558C26.5846 26.7251 25.9077 26.9712 25.1692 27.0328C25.1692 27.0328 23.8769 27.5866 22.7692 28.5712L22.0923 30.9712C22.0923 32.1405 23.0769 33.1251 24.2461 33.1251H25.3538C26.5231 33.1251 27.6307 32.8174 28.6769 32.2635L37.4769 27.1558C37.4769 26.7866 37.4154 26.3558 37.2923 25.9866L34.7077 16.3251Z" fill="#8698BF" />
        <path d="M22.0922 16.8615L25.6614 12.6769C25.8461 12.4307 26.2153 12.4307 26.4614 12.6154C27.0768 13.1077 28.1845 14.0923 29.4153 14.7692C30.6461 15.5077 32.4307 16.2461 33.2922 16.5538C33.5999 16.6769 33.723 16.9846 33.5999 17.2923L31.6307 22.2769C31.4461 22.7077 30.9538 22.8923 30.523 22.7692C29.1076 22.2154 26.2768 21.0461 24.6768 20.1231C23.4461 19.3846 22.5845 18.5846 22.0922 18.0307C21.7845 17.6615 21.7845 17.2307 22.0922 16.8615Z" fill="#FDFDFD" />
        <path d="M23.5694 30.0923C23.4464 30.3385 24.1848 30.8308 24.1848 31.2L22.5233 31.1385L23.4464 32.9846L21.1079 31.8769L22.0925 29.2308L25.6618 28C25.6618 28.0615 23.6925 29.8462 23.5694 30.0923Z" fill="#57617F" />
        <path d="M26.3386 27.6923C25.4156 28.0616 23.6925 28.6154 22.0925 28.3077L20.9233 27.0154L17.7233 26.7693L16.0002 24.7385C16.0002 24.7385 15.8771 23.8154 16.0002 22.8308C16.0002 22.8308 15.2617 25.1693 15.9386 25.6616C15.9386 26.1539 16.0002 26.6462 16.2463 26.8308C16.3694 26.8923 16.6156 27.0154 16.9848 27.2L17.5386 28L20.3079 28.9231C20.3694 28.9231 20.3694 28.9847 20.431 28.9847C21.1694 29.3539 21.7848 29.6616 21.9694 29.7847C22.2156 29.9077 22.2771 29.7231 22.2771 29.4154C22.7079 29.4154 23.4463 29.4154 24.554 29.1693C24.8002 29.1077 25.4156 28.677 26.4002 27.8154C26.5848 27.7539 26.4617 27.6308 26.3386 27.6923Z" fill="#2B2E3A" />
        <path d="M33.354 29.5557L33.2925 27.2788L32.8002 26.6634H30.954L29.6002 27.5865C28.4309 28.3865 27.631 29.6788 27.631 31.2172L27.2617 32.3865L27.3848 32.8172C27.3848 32.8172 27.8156 32.6942 28.2463 32.448L28.3079 32.5095L29.6002 33.1727L29.7848 32.5095C30.5848 32.0172 31.2617 31.3403 31.631 30.4788C32.554 29.9865 33.354 29.5557 33.354 29.5557Z" fill="#2B2E3A" />
        <path d="M27.3848 32.8001C27.3848 32.8001 28.4309 27.754 31.3233 26.8924C34.2156 26.0309 32.9233 29.7847 32.9233 29.7847L33.7848 29.2924C33.7848 29.2924 34.3386 25.2924 31.3233 26.277C27.4463 27.5078 26.2771 33.0463 26.2771 33.0463C26.6463 33.1693 27.0771 32.9847 27.3848 32.8001Z" fill="#BFC6F2" />
        <path d="M15.8768 27.5694L22.0922 31.1386C22.523 32.1232 22.8922 32.7386 22.8922 32.7386C22.3999 32.8617 21.8461 32.1848 21.4153 32.0617C20.9845 31.9386 16.2461 30.0309 16.2461 30.0309C15.8153 29.7232 15.4461 29.1079 15.323 28.8617C15.3845 28.4309 15.8768 27.5694 15.8768 27.5694Z" fill="#2B2E3A" />
        <path d="M21.9078 17.7845C21.5385 18.2769 21.2308 18.7692 20.8616 19.2615C20.5539 19.7538 20.1847 20.2461 19.877 20.7384C19.5078 21.2307 19.1385 21.723 18.7693 22.1538C18.6462 22.2769 18.5847 22.3384 18.4001 22.523C18.277 22.6461 18.0308 22.7076 17.8462 22.6461C17.6616 22.5845 17.5385 22.523 17.4154 22.4615C17.4154 22.4615 17.3539 22.4615 17.3539 22.523C17.3539 22.5845 17.3539 22.6461 17.2924 22.7692C17.2924 22.7076 17.2308 22.6461 17.2308 22.523C17.2308 22.4615 17.2308 22.4615 17.2308 22.3999C17.2308 22.3384 17.3539 22.2769 17.4154 22.2769C17.6001 22.2769 17.7231 22.3384 17.8462 22.3384C17.9693 22.3384 18.0308 22.2769 18.0924 22.2153C18.1539 22.1538 18.277 21.9692 18.3385 21.8461C18.6462 21.3538 19.0155 20.8615 19.3231 20.3076C19.6924 19.8153 20.0616 19.323 20.4308 18.8922C20.9231 18.523 21.3539 18.0922 21.9078 17.7845Z" fill="#8698BF" />
        <path d="M29.9693 22.7692C29.1693 23.3846 28.1847 23.8769 27.2001 24.2461C26.7078 24.4308 26.2155 24.6154 25.7232 24.7385C25.2309 24.8615 24.677 24.9846 24.3078 25.1692L24.3693 25.1077C24.1232 25.4154 23.9386 25.7231 23.6924 25.9692L23.6309 26.0308H23.5693C23.2001 25.9692 22.8309 25.9077 22.5232 25.7846C22.8924 25.7231 23.2617 25.7231 23.6309 25.7231L23.5078 25.7846C23.6924 25.4769 23.877 25.1077 24.0617 24.8V24.7385L24.1232 24.6769C24.6155 24.3692 25.1078 24.2461 25.6001 24.0615C26.0924 23.8769 26.5847 23.7538 27.077 23.6308L29.9693 22.7692Z" fill="#8698BF" />
        <path d="M34.0925 21.4154C33.9694 21.7846 34.4002 22.0307 34.7079 21.8461L36.0617 20.9846L35.1386 17.8461C35.0771 17.9692 35.0156 18.0923 35.0156 18.2154L34.0925 21.4154Z" fill="#F97A7A" />
        <path d="M24.0616 29.9692C24.0616 29.9692 24.3693 30.7076 24.9847 30.7692C25.6001 30.8307 25.7232 29.4769 25.7232 29.4769L24.0616 29.9692Z" fill="#57617F" />
        <path d="M16.1232 27.3846C15.3848 26.8308 14.7078 27.3231 14.5232 27.5692L13.8463 26.1539L13.9078 24.7385C13.7848 24.6154 14.2155 23.6308 14.0924 23.5077C13.7232 23.1385 13.6001 22.2154 13.6001 22.2154C12.8001 21.6 11.9386 21.0462 10.954 20.3692C10.954 20.3692 9.10783 16.5539 8.12321 15.5077C7.1386 14.4616 4.00013 12.5539 2.58475 11.6923C2.46167 12.4923 2.46167 13.2923 2.70783 14.0923L7.32321 31.2616L16.8617 29.0462L16.1232 27.3846Z" fill="#FFD385" />
        <path d="M16.8002 30.5849V29.0464L15.6925 28.4925L16.1233 27.3849C15.8156 27.3233 15.7541 27.3233 15.7541 27.0156C15.3233 26.4618 14.5233 26.4002 14.4618 26.1541C14.2772 25.5387 14.2772 23.7541 14.0925 23.5079L13.0464 24.8618L13.9079 26.1541C13.9079 26.1541 13.8464 26.5233 10.7079 28.3079C9.78486 28.8618 8.24639 29.6002 7.01562 30.1541L8.00024 33.7849C8.24639 34.7695 8.80024 35.5695 9.47716 36.1849L15.631 32.6156C16.3695 32.1849 16.8002 31.4464 16.8002 30.5849Z" fill="#FFB75E" />
        <path d="M9.16939 32.554L12.6155 30.5848C12.8002 30.4617 13.1078 30.5848 13.1078 30.8309V32.8617C13.1078 33.0463 12.9848 33.2309 12.8002 33.354L9.354 35.3232C9.16939 35.4463 8.86169 35.3232 8.86169 35.0771V33.0463C8.86169 32.8002 8.98477 32.6156 9.16939 32.554Z" fill="#57617F" />
        <path d="M15.0771 30.4618C15.6309 29.6002 16.8002 29.0464 16.8002 29.0464V30.1541C16.8002 30.6464 16.554 31.0772 16.1233 31.3233L14.8925 32.0002C14.6463 32.1233 14.4002 31.9387 14.4617 31.631C14.6463 31.3233 14.8309 30.831 15.0771 30.4618Z" fill="#57617F" />
        <path d="M15.0771 30.4616C15.2002 30.2155 15.3848 30.0309 15.6309 29.8463L15.3233 30.6463L15.6309 31.077L16.2463 29.9078L16.3079 30.3386L16.8002 30.1539C16.8002 30.6463 16.554 31.077 16.1233 31.3232L14.8925 32.0001C14.6463 32.1232 14.4002 31.9386 14.4617 31.6309C14.6463 31.3232 14.8309 30.8309 15.0771 30.4616Z" fill="#F97A7A" />
        <path d="M8.61554 17.1078C8.30784 16.6155 7.69246 16.4924 7.20015 16.7386L3.87708 18.6462L5.23092 23.6309L10.4617 20.677C9.96938 19.5078 9.23092 18.0924 8.61554 17.1078Z" fill="#F97A7A" />
        <path d="M14.7691 27.7539C14.8922 27.6308 15.6307 27.6923 15.7538 26.9539L7.38452 31.6923L7.75375 32.9846L15.1384 28.7385L14.7691 27.7539Z" fill="#FFD385" />
        <path d="M15.3231 27.1385L15.7539 27.0154L16.1231 27.3847L15.8154 27.877L13.3539 28.8001L14.4 27.5077L15.3231 27.1385Z" fill="#57617F" />
        <path d="M15.3849 28.0002L14.031 28.2464L14.6464 27.8156L14.4002 27.5079L7.01562 30.2156L7.20024 31.0156L13.231 28.8002L15.3849 28.0002Z" fill="#EF3F54" />
        <path d="M7.9386 29.9079L8.18475 30.7079L13.2309 28.8002L13.7232 27.754L7.9386 29.9079Z" fill="#57617F" />
        <path d="M31.6924 27.8155C31.4462 27.8155 31.2001 27.877 30.9539 28.0001C29.6616 28.7386 28.7385 30.2155 28.7385 31.8155C28.7385 32.6155 29.4154 33.2924 30.2154 33.2924C30.4616 33.2924 30.7693 33.2309 30.9539 33.1078C32.2462 32.3693 33.1693 30.8924 33.1693 29.2924C33.1693 28.4924 32.4924 27.8155 31.6924 27.8155Z" fill="#57617F" />
        <path d="M36.7385 21.2924C36.3693 21.1077 35.3846 20.677 35.0154 20.7385C34.7693 20.7385 34.5231 21.0462 34.4 21.4154C34.2154 21.477 33.9077 21.6 33.9077 21.7231C33.9077 21.9077 34.2769 22.0308 34.4616 22.0308C34.5231 22.1539 34.6462 22.2154 34.7693 22.277C34.9539 22.3385 36.4308 22.5847 36.8 22.2154C37.2308 21.7847 37.1077 21.477 36.7385 21.2924Z" fill="#EF3F54" />
        <path d="M9.72321 33.0463H13.6617C13.9078 33.0463 14.0309 33.2924 13.9078 33.5386L12.9232 35.2617C12.8001 35.4463 12.6155 35.5693 12.4309 35.5693H8.49244C8.24628 35.5693 8.1232 35.3232 8.24628 35.077L9.2309 33.354C9.35397 33.1693 9.53859 33.0463 9.72321 33.0463Z" fill="#FDFDFD" />
    </g>
</svg>
    