<svg width="40" height="42" viewBox="0 0 40 42" fill="none" xmlns="http://www.w3.org/2000/svg">
    <path d="M33.8003 33.0667L14.0607 38.3818C11.4073 39.1054 8.67946 37.5333 7.9603 34.8633L2.67822 15.0003C1.95906 12.3303 3.54616 9.58537 6.19961 8.86171L25.9392 3.54661C28.5927 2.82296 31.3205 4.41998 32.0396 7.09001L37.3217 26.953C38.0161 29.6231 36.4538 32.368 33.8003 33.0667Z" fill="#E1E4F4" />
    <path d="M34.4201 13.7025L33.2298 14.8254C33.2298 14.8254 26.5838 10.6582 26.3606 10.5084C26.1374 10.3837 24.2775 13.5777 23.9303 13.7774L3.47156 25.6552L19.5162 28.6746L34.7425 20.44C35.3128 20.0906 34.4201 13.7025 34.4201 13.7025Z" fill="#2B2E3A" />
    <path d="M21.8969 14.1767L20.8802 13.8274C20.657 13.7525 20.4338 13.6028 20.285 13.4281L19.913 12.979C19.7146 12.7294 19.3179 12.7544 19.1443 13.0538L18.7971 13.6527C18.7227 13.7775 18.6731 13.9272 18.6731 14.1019V15.5492L17.6068 16.9216L14.2094 18.893C14.0854 18.9678 14.011 19.0926 14.011 19.2423V19.7164C14.011 19.8662 14.0854 19.9909 14.2094 20.0658L17.3588 21.8874C17.5076 21.9872 17.706 21.9872 17.8548 21.8874L21.4505 19.8412C21.5497 19.7913 21.5993 19.6915 21.5993 19.5667V19.2423L22.7401 15.8985C22.9632 15.1998 22.5913 14.4263 21.8969 14.1767Z" fill="#57617F" />
    <path d="M26.931 17.8948L25.9142 17.5454C25.691 17.4706 25.4678 17.3208 25.319 17.1462L24.9471 16.697C24.7487 16.4475 24.3519 16.4724 24.1783 16.7719L23.9551 17.1711C23.8063 17.4456 23.7071 17.745 23.7071 18.0445V19.7164C23.7071 19.891 23.608 20.0657 23.4592 20.1655L22.6656 20.6397L19.2682 22.611C19.1442 22.6858 19.0698 22.8106 19.0698 22.9603V23.4344C19.0698 23.5842 19.1442 23.7089 19.2682 23.7838L22.4176 25.6054C22.5664 25.7052 22.7648 25.7052 22.9136 25.6054L26.5094 23.5592C26.6086 23.5093 26.6582 23.4095 26.6582 23.2847V22.9603L27.7989 19.6166C28.0221 18.8929 27.6501 18.1443 26.931 17.8948Z" fill="#57617F" />
    <path d="M12.4983 14.8754L11.8287 18.0195L14.3334 16.4474L14.4326 17.7949L16.5156 18.3689L15.0277 19.4419L15.8709 21.9622L9.02649 18.3689L10.192 16.5722L12.4983 14.8754Z" fill="#FFD385" />
    <path d="M19.1195 16.0232L17.6564 17.6701L19.7394 17.5703L19.6651 18.3688L21.0042 18.6184L21.3514 16.9964L19.1195 16.0232Z" fill="#FFD385" />
    <path d="M4.48841 22.7856C4.41402 22.9603 4.06684 22.7607 3.76925 23.9834C3.29808 24.4326 3.14929 25.1063 3.14929 25.4557V27.9261C3.14929 28.4501 3.32288 28.9242 3.67006 29.3235C3.81885 29.4981 4.56281 29.0989 4.78599 29.2237C6.72028 30.3466 8.80335 31.3697 8.80335 31.3697C9.91929 32.0185 10.5144 33.0166 11.804 33.0166L12.1512 32.3428L13.8127 25.306L4.48841 22.7856Z" fill="#F97A7A" />
    <path d="M33.2299 11.1822L25.6416 6.81535C24.8976 6.39114 23.9553 6.39114 23.2113 6.81535L16.3917 11.5815C16.0198 11.831 15.5982 12.0057 15.1518 12.0805L13.7879 12.2802L13.3167 12.6295C13.0935 12.8042 12.8951 13.0288 12.7711 13.3033L12.2256 14.501L9.79533 16.5722L9.02657 17.8199L5.10841 20.8642C4.88522 21.0389 5.1828 21.5878 5.05881 21.8124C4.86042 22.1368 4.31486 22.4113 4.31486 22.8106L4.26526 23.1849C4.26526 23.4344 5.1828 24.1581 5.48039 23.5592C5.67877 23.1599 8.25782 24.0832 8.6298 24.3078L9.74573 25.6303C10.3905 26.0046 9.32415 27.4519 10.0681 27.3521L12.9943 27.1275C13.5399 27.0776 14.507 27.427 14.9782 27.1525C16.8629 26.1294 19.194 23.7588 19.3428 23.8087L21.7234 17.3208C25.468 14.1267 29.4853 13.5279 33.2299 11.1822ZM20.7315 17.8448L18.8468 22.586C18.7228 22.8854 18.45 23.0851 18.1276 23.0851L9.62174 18.1692C9.57214 17.9446 9.62174 17.6951 9.79533 17.4955L10.1921 16.7718L12.4984 14.8753L13.1927 13.453C13.3911 13.2284 13.7135 13.2035 13.9367 13.4031C14.2591 13.7025 14.2839 14.4761 14.879 14.9253C15.3006 15.2247 16.2677 15.1997 16.7389 15.4493C17.9292 16.123 19.6155 16.8467 20.4587 17.1711C20.7067 17.2709 20.8307 17.5703 20.7315 17.8448Z" fill="#BFC6F2" />
    <path d="M35.0649 12.5297C34.7426 12.0806 34.2962 11.7562 33.825 11.4817L33.2299 11.1823L32.0643 11.9059C35.1889 15.4743 30.1796 22.5112 29.6093 22.8356L27.8734 23.7588C28.171 23.4344 28.3446 23.0352 28.3446 22.586L28.4437 18.1443C28.4437 17.7949 28.419 17.4456 28.3446 17.0962L27.6254 13.8523C27.5262 13.4281 27.055 13.2035 26.6583 13.4281L23.1369 15.4743C22.3929 15.8985 21.8225 16.5972 21.5498 17.3957L20.409 20.6895C20.3098 20.964 20.2106 21.2385 20.0619 21.4881C19.9627 21.6877 19.8883 21.9123 19.8387 22.1369C19.2683 23.3346 18.3508 24.3078 17.21 24.9816L14.7302 26.4039C14.1102 26.7533 13.4159 27.0028 12.7215 27.0777C12.7215 27.0777 11.4816 27.5767 10.44 28.5749L9.82007 30.8955C9.82007 32.0434 10.7376 32.9667 11.8783 32.9667L14.1102 31.744C14.4574 31.2699 14.8294 29.0739 17.1356 28.6497L20.533 29.4981L28.8157 24.6821L33.7754 21.1886C34.6186 20.6895 35.7593 20.1406 35.9329 19.1674C35.9825 18.9678 36.0073 18.7432 36.0073 18.5435V15.2996C36.0073 14.3514 35.6849 13.3532 35.0649 12.5297ZM21.4506 21.1138L22.3433 18.0445C22.6161 17.1461 23.2113 16.3726 24.0296 15.8985L27.055 14.1268L27.6998 16.9715C27.799 17.4456 27.6006 17.9197 27.2038 18.1942L22.0209 21.538C21.7234 21.7126 21.3514 21.4382 21.4506 21.1138Z" fill="#8698BF" />
    <path d="M12.2502 20.5398C12.2502 20.5398 12.275 20.5398 12.275 20.5647C12.275 20.5398 12.2502 20.5398 12.2502 20.5398Z" fill="#B3B3B3" />
    <path d="M35.4369 18.4687C35.4369 18.4687 34.569 17.9696 34.5194 18.0195C34.4698 18.0694 33.1058 18.3189 33.1058 18.3189L31.2212 19.9659L29.6093 24.3078L30.626 23.7339L31.8163 24.4076L35.3129 20.6895L35.3873 20.3402L35.5361 19.342L35.4369 18.4687Z" fill="#2B2E3A" />
    <path d="M33.9242 19.3171C33.6762 19.3171 33.4282 19.392 33.2298 19.5168C31.9651 20.2404 31.1219 21.6129 31.1219 23.1849C31.1219 23.9585 31.7419 24.6073 32.5355 24.6073C32.7834 24.6073 33.0314 24.5324 33.2546 24.4077C34.4945 23.684 35.3625 22.3116 35.3625 20.7395C35.3377 19.9659 34.6929 19.3171 33.9242 19.3171Z" fill="#57617F" />
    <path d="M33.6513 17.8449C32.6098 18.1693 31.7915 18.7932 31.1467 19.5168C30.9235 19.7663 30.1052 20.9641 29.9564 21.2885C29.6092 21.9623 29.386 22.5861 29.2372 23.1351C28.9644 24.0334 28.8652 24.7321 28.8652 24.7321L29.9564 24.1083C29.9564 24.1083 30.8987 19.2922 33.6513 18.4438C34.1721 18.2941 34.3457 18.319 34.6185 18.3939C34.8913 18.4937 35.2633 18.6684 35.3624 18.9429C35.5608 19.4669 35.4616 20.1656 35.3376 20.6647C35.66 20.2405 35.8584 19.7663 35.9576 19.2673C35.8832 18.893 35.7592 18.5187 35.536 18.2192C35.3872 18.0196 34.1721 17.6702 33.6513 17.8449Z" fill="#BFC6F2" />
    <path d="M3.67006 25.2061L3.99244 25.0564C3.99244 24.1331 4.26523 23.3096 4.26523 23.3096L5.48035 22.2117L4.31482 22.7856C4.24043 22.9603 4.09164 22.7606 3.76925 23.9834C3.29808 24.4325 3.14929 25.1063 3.14929 25.4556V26.2791C3.14929 27.0277 3.14929 27.5018 3.14929 27.9011C3.14929 27.9011 3.39728 27.951 3.39728 27.8013C3.49647 26.8031 3.67006 25.2061 3.67006 25.2061Z" fill="#8698BF" />
    <path d="M11.2088 30.1719C11.0848 30.3965 11.7791 30.8955 11.7791 31.2698L10.192 31.195L11.0848 32.9417L8.85291 31.8937L9.77045 29.3484L13.1678 28.2006C13.1926 28.2006 11.3328 29.9473 11.2088 30.1719Z" fill="#F97A7A" />
    <path d="M13.8622 27.8262C12.9694 28.1756 11.3575 28.6747 9.79521 28.4002L8.65448 27.1775L5.62906 26.9279L3.99235 25.0564C3.99235 25.0564 3.89316 24.183 3.99235 23.2098C3.99235 23.2098 3.298 25.4557 3.96756 25.9547C3.96756 26.4039 4.04195 26.903 4.26514 27.0527C4.36433 27.1275 4.61232 27.2523 4.9595 27.427L5.48027 28.2255L8.10891 29.049C8.1585 29.0739 8.1833 29.0989 8.2329 29.1238C8.92726 29.4732 9.49762 29.7726 9.69601 29.8974C9.944 30.0471 10.0184 29.8475 10.0184 29.548C10.4152 29.548 11.1343 29.5231 12.2007 29.3235C12.4238 29.2735 13.019 28.8493 13.9862 28.0508C14.0606 27.951 13.9614 27.8013 13.8622 27.8262Z" fill="#2B2E3A" />
    <path d="M3.89321 27.7513L9.79525 31.17C10.192 32.1182 10.564 32.6672 10.564 32.6672C10.0928 32.8169 9.54727 32.1182 9.15049 31.9934C8.75371 31.8687 4.24038 30.0471 4.24038 30.0471C3.81881 29.7476 3.44683 29.1487 3.37244 28.8992C3.39724 28.5748 3.89321 27.7513 3.89321 27.7513Z" fill="#EF3F54" />
    <path d="M9.6464 18.3689C9.27442 18.8181 9.00164 19.3171 8.67926 19.7912C8.38167 20.2654 8.05929 20.7644 7.73691 21.2386C7.38973 21.7127 7.04255 22.1868 6.64578 22.611C6.59618 22.6609 6.54658 22.7108 6.49699 22.7607C6.44739 22.8106 6.39779 22.8605 6.3234 22.9354C6.19941 23.0602 5.97622 23.135 5.80263 23.0851C5.62904 23.0602 5.50505 22.9354 5.40585 22.9104C5.38105 22.9104 5.38105 22.8855 5.38105 22.9104C5.35626 22.9354 5.35626 22.9603 5.35626 22.9853C5.33146 23.0602 5.33146 23.135 5.33146 23.2099C5.30666 23.135 5.28186 23.0602 5.28186 22.9853C5.28186 22.9354 5.28186 22.9104 5.30666 22.8605C5.33146 22.8106 5.40585 22.7607 5.45545 22.7607C5.62904 22.7857 5.75303 22.8356 5.87703 22.8356C5.97622 22.8356 6.05061 22.7857 6.12501 22.6859C6.14981 22.636 6.19941 22.586 6.2242 22.5112C6.249 22.4613 6.2986 22.3864 6.3482 22.3365C6.64578 21.8624 6.96816 21.3633 7.29054 20.8892C7.61292 20.4151 7.9601 19.941 8.35688 19.5168C8.55526 19.2922 8.75365 19.0926 8.97684 18.8929C9.12563 18.6933 9.34882 18.4937 9.6464 18.3689Z" fill="#8698BF" />
    <path d="M17.2844 23.1599C16.8876 23.4594 16.4661 23.7338 16.0197 23.9584C15.5733 24.183 15.1269 24.3826 14.6558 24.5573C14.1846 24.732 13.7134 24.8817 13.2423 25.0314L12.5479 25.2311C12.3247 25.3059 12.0767 25.3808 11.9031 25.4556L11.9775 25.3808C11.7791 25.6802 11.556 25.9547 11.3328 26.2292L11.2584 26.3041L11.184 26.2791C10.8368 26.2042 10.5144 26.1294 10.1672 26.0296C10.5144 25.9797 10.8616 25.9797 11.2088 25.9797L11.06 26.0545C11.2088 25.7301 11.3824 25.4307 11.556 25.1063L11.5808 25.0564L11.6303 25.0314C11.8783 24.8817 12.1015 24.8068 12.3495 24.707C12.5727 24.6072 12.8207 24.5324 13.0439 24.4575C13.515 24.3078 13.9862 24.1581 14.4326 24.0333L15.8213 23.6091L17.2844 23.1599Z" fill="#8698BF" />
    <path d="M20.1114 29.8225L20.7065 28.4251L19.9874 26.7782H18.2515L16.9868 27.6765L15.5237 29.2236L14.7301 30.5711C14.7301 30.5711 15.2757 30.1968 15.8956 29.8475C17.8051 28.7994 20.1114 29.8225 20.1114 29.8225Z" fill="#2B2E3A" />
    <path d="M18.5492 29.0489C18.2764 28.8992 17.9044 29.024 17.6068 29.3234L16.0445 28.4001L15.4246 29.5231L17.0365 30.4713C16.9869 30.8456 17.0613 31.145 17.3092 31.2948L17.6068 31.4694L18.8468 29.2236C18.8468 29.2236 18.574 29.0739 18.5492 29.0489Z" fill="#57617F" />
    <path d="M18.8466 29.2236C18.4498 29.024 17.8795 29.3484 17.5571 29.9722C17.2347 30.5961 17.2099 31.2698 17.6067 31.4694C18.0035 31.6691 18.6482 31.3447 18.9706 30.7208C19.293 30.097 19.2434 29.4232 18.8466 29.2236Z" fill="#8698BF" />
    <path d="M14.5813 30.7957C14.5813 30.7957 15.1021 30.3965 15.4492 29.5231C15.598 29.1488 15.8708 29.5231 16.1188 29.1238C16.6644 28.2255 17.4579 27.3771 18.5491 27.0527C21.3265 26.2043 20.0866 29.8225 20.0866 29.8225L20.9049 29.3484C20.9049 29.3484 21.4257 25.5305 18.5739 26.4289C17.0363 26.9279 16.1188 27.3771 15.4244 28.4002C15.3004 28.5749 15.1517 29.2736 15.1517 29.2736L13.7629 30.1469C13.7629 30.1469 13.9365 31.0203 13.8869 31.2199C13.7877 31.5443 14.0853 31.7939 14.0853 31.7939C14.5317 31.4695 14.4573 31.2199 14.5813 30.7957Z" fill="#BFC6F2" />
</svg>
    