<svg width="316" height="168" viewBox="0 0 316 168" fill="none" xmlns="http://www.w3.org/2000/svg">
    <g filter="url(#filter0_d_0_1)">
        <path d="M10 22C10 15.3726 15.3726 10 22 10H294C300.627 10 306 15.3726 306 22V146C306 152.627 300.627 158 294 158H22C15.3726 158 10 152.627 10 146V22Z" fill="white" />
    </g>
    <mask id="mask0_0_1" style="mask-type:alpha" maskUnits="userSpaceOnUse" x="226" y="2" width="80" height="156">
        <rect x="226" y="2" width="80" height="156" fill="#C4C4C4" />
    </mask>
    <g mask="url(#mask0_0_1)">
        <path d="M252.312 133.044C252.312 133.044 253.884 133.227 255.027 134.946C256.491 137.141 256.991 139.481 256.062 141.42C255.134 143.322 254.919 143.798 254.741 144.822C254.634 145.444 255.205 147.602 255.384 148.077C255.67 149.065 254.919 149.175 254.919 149.175C255.241 149.869 254.884 150.345 254.705 150.345C253.812 150.235 253.276 147.492 252.705 146.321C252.705 146.321 253.598 149.54 253.741 151.077C253.848 152.503 252.491 152.393 252.098 150.857C252.098 150.857 250.99 150.455 250.526 149.028C250.062 147.602 249.347 144.749 249.597 142.993C249.847 141.237 250.776 137.141 250.776 137.141L252.312 133.044Z" fill="#FAC2A8" />
        <path d="M251.205 139.59C251.419 140.212 251.597 140.87 251.776 141.529C251.919 142.187 252.062 142.845 252.098 143.54C252.098 143.723 252.098 143.87 252.062 144.052C252.026 144.199 252.026 144.345 252.062 144.528C252.098 144.821 252.24 145.113 252.419 145.333C252.633 145.552 252.919 145.662 253.133 145.516C253.241 145.442 253.348 145.333 253.383 145.223C253.455 145.113 253.491 144.967 253.491 144.821C253.526 144.491 253.491 144.162 253.491 143.833C253.491 143.504 253.491 143.138 253.562 142.809C253.669 142.114 253.955 141.455 254.419 140.943C254.634 140.687 254.884 140.468 255.062 140.175C255.241 139.919 255.384 139.627 255.455 139.297C255.634 138.676 255.527 137.981 255.205 137.395C255.598 137.944 255.777 138.639 255.634 139.334C255.527 140.029 255.062 140.614 254.634 141.09C254.241 141.602 253.991 142.187 253.884 142.845C253.776 143.467 253.848 144.126 253.812 144.821C253.776 145.003 253.776 145.186 253.669 145.369C253.562 145.516 253.455 145.698 253.276 145.772C253.098 145.881 252.883 145.881 252.705 145.808C252.526 145.735 252.348 145.625 252.24 145.516C251.99 145.26 251.848 144.894 251.812 144.528C251.776 144.345 251.812 144.162 251.848 143.979C251.883 143.833 251.883 143.65 251.883 143.504C251.883 142.845 251.776 142.187 251.669 141.529C251.526 140.907 251.347 140.248 251.205 139.59Z" fill="#DC918B" />
        <path d="M251.455 144.383C251.491 144.969 251.527 145.517 251.598 146.066C251.669 146.615 251.812 147.163 251.991 147.675C252.062 147.931 252.205 148.188 252.312 148.444C252.42 148.7 252.562 148.919 252.705 149.212C252.812 149.468 252.884 149.834 252.741 150.09C252.634 150.382 252.384 150.565 252.098 150.675C252.348 150.528 252.562 150.309 252.634 150.053C252.705 149.797 252.634 149.541 252.527 149.285C252.42 149.065 252.241 148.809 252.098 148.553C251.955 148.297 251.848 148.041 251.741 147.749C251.527 147.2 251.384 146.651 251.312 146.066C251.205 145.554 251.205 144.932 251.455 144.383Z" fill="#DC918B" />
        <path d="M254.168 145.08C254.133 145.409 254.168 145.738 254.276 146.031C254.311 146.177 254.418 146.287 254.49 146.433C254.561 146.579 254.633 146.762 254.668 146.909C254.847 147.567 254.954 148.225 254.99 148.884C254.811 148.262 254.668 147.604 254.418 147.018C254.347 146.872 254.276 146.726 254.204 146.616C254.133 146.47 254.061 146.287 254.061 146.104C254.026 145.738 254.061 145.409 254.168 145.08Z" fill="#DC918B" />
        <path d="M250.705 133.044L249.812 137.067C249.812 137.067 254.634 136.555 257.492 139.811L258.278 133.885C258.313 133.885 256.42 132.203 250.705 133.044Z" fill="#EF3F54" />
        <path d="M250.704 133.044C250.704 133.044 249.204 128.07 250.668 124.448C252.133 120.827 254.24 104.733 255.597 98.7344C256.312 95.5887 259.276 91.4188 261.062 90.7605C262.491 90.2118 262.884 105.867 263.17 107.879C261.42 113.036 258.669 120.425 258.669 121.083C258.669 126.789 256.026 134.507 256.026 134.507C256.026 134.507 253.418 133.446 250.704 133.044Z" fill="#BD1A3B" />
        <path d="M257.492 119.071L256.349 144.273C256.349 144.273 264.314 148.553 270.601 148.845C275.137 171.779 274.066 173.352 274.459 175.547C274.673 176.644 275.852 194.86 275.745 195.518C275.602 196.177 275.494 197.31 275.673 198.079C275.816 198.664 275.459 201.7 275.459 201.7C275.459 201.7 277.28 202.248 279.602 202.504C281.924 202.761 284.924 201.919 285.817 201.919C285.817 201.919 285.567 200.31 285.817 199.286C286.032 198.444 285.281 197.384 285.567 196.469C285.817 195.555 286.174 190.69 286.174 185.459C286.174 179.205 285.817 174.084 285.174 172.218C285.424 155.393 285.21 145.59 285.174 144.712C285.067 140.798 284.567 137.872 284.567 136.811C284.567 135.75 283.781 118.888 283.781 118.888L257.492 119.071Z" fill="#474E64" />
        <path d="M266.706 139.408C266.813 140.469 266.921 141.566 267.028 142.663C267.135 143.761 267.206 144.821 267.278 145.919V146.138H267.064H264.92H264.742V145.955C264.706 145.004 264.67 144.053 264.635 143.102C264.599 142.151 264.599 141.2 264.563 140.249L264.67 140.359C264.135 140.286 263.634 140.213 263.099 140.14H263.063V140.103C263.134 139.81 263.242 139.554 263.313 139.262C263.242 139.554 263.206 139.847 263.134 140.103L263.099 140.03C263.634 140.066 264.17 140.103 264.67 140.14H264.778V140.249C264.849 141.2 264.92 142.151 264.992 143.066C265.063 144.017 265.099 144.968 265.17 145.882L264.956 145.699H267.099L266.921 145.919C266.885 144.821 266.813 143.761 266.813 142.663C266.706 141.566 266.706 140.505 266.706 139.408Z" fill="#343948" />
        <path d="M285.174 134.104L285.138 137.031C285.138 137.031 275.101 138.896 273.351 139.006C271.601 139.079 270.601 136.006 270.601 136.006L272.422 134.287L285.174 134.104Z" fill="#EF3F54" />
        <path d="M256.205 133.303L255.848 136.229C255.848 136.229 262.206 138.387 263.92 138.679C265.635 139.009 267.063 136.119 267.063 136.119L265.492 134.18L256.205 133.303Z" fill="#EF3F54" />
        <path d="M256.349 144.236C256.349 144.236 257.206 164.756 257.206 165.671C257.206 166.585 257.849 196.469 257.599 197.127C257.349 197.786 256.956 201.041 256.956 201.041C256.956 201.041 259.635 202.138 261.385 202.248C262.993 202.358 263.779 202.468 268.172 201.407C267.815 198.7 267.851 195.664 267.851 194.75C267.851 193.835 268.779 183.411 268.779 181.948C268.779 180.485 269.529 171.999 268.636 168.341C268.351 167.243 269.422 148.699 269.422 148.699C269.422 148.699 263.1 147.601 256.349 144.236Z" fill="#343948" />
        <path d="M255.599 137.174V140.43C255.599 140.43 260.207 143.868 273.351 143.209C286.496 142.551 285.424 141.783 285.424 141.783L285.174 136.26L255.599 137.174Z" fill="#31374C" />
        <path d="M285.889 92.0387C285.889 92.0387 283.888 91.0876 280.067 89.9903C277.566 89.2953 275.459 88.8198 272.673 88.8198C267.993 88.7832 262.636 90.2463 261.135 90.7219C259.564 91.2339 257.778 96.94 257.421 103.012C257.135 107.73 256.563 114.644 256.135 122.764C255.885 127.263 254.277 134.505 255.635 137.175C272.315 142.406 285.21 137.029 285.21 137.029C287.032 133.554 285.281 129.055 286.96 108.901C287.746 99.0615 285.889 92.0387 285.889 92.0387Z" fill="#BD1A3B" />
        <path d="M261.099 90.7594C260.671 90.9423 260.385 91.3446 260.171 91.7104C259.921 92.1128 259.742 92.5151 259.563 92.9541C259.206 93.7953 258.956 94.6732 258.706 95.5876C258.242 97.3799 257.956 99.1722 257.742 101.001C257.635 101.916 257.599 102.83 257.527 103.744L257.349 106.524C257.242 108.353 257.099 110.219 256.956 112.048C256.67 115.742 256.42 119.436 256.063 123.094C255.742 126.788 255.384 130.446 254.956 134.14L256.527 112.011L256.92 106.488L257.099 103.708C257.17 102.793 257.206 101.842 257.349 100.928C257.563 99.0991 257.92 97.2702 258.456 95.4779C258.706 94.6 259.028 93.7222 259.421 92.8809C259.599 92.4785 259.849 92.0396 260.099 91.6738C260.349 91.2715 260.671 90.9057 261.099 90.7594Z" fill="#E0363C" />
        <path d="M277.316 78.1393L266.457 78.4685C266.457 78.4685 266.993 84.0649 267.029 91.7461C267.029 93.2092 267.814 95.2575 267.814 95.2575C267.814 95.2575 272.529 94.6357 277.351 89.1857C276.994 87.7592 277.316 78.1393 277.316 78.1393Z" fill="#DC918B" />
        <path d="M266.743 139.081C265.528 122.036 268.779 98.6266 269.029 96.9074L267.671 95.3346L267.993 95.042L269.493 96.7611V96.8709C269.457 97.1269 265.957 121.488 267.207 139.045L266.743 139.081Z" fill="#E0363C" />
        <path d="M246.561 60.84C246.561 60.84 243.704 51.2566 239.346 55.3533C234.988 59.45 241.275 71.9596 248.276 68.7773C248.276 68.8139 249.919 67.3874 246.561 60.84Z" fill="#F7AB8D" />
        <path d="M236.81 25.4693C231.523 27.1153 234.202 37.5033 235.274 40.2467C239.239 50.4884 240.025 59.5962 243.454 62.8516C243.454 62.8516 245.418 22.7992 236.81 25.4693Z" fill="#2B2E3A" />
        <path d="M292.209 58.463C292.173 58.902 291.066 70.3507 284.279 69.1437L284.815 62.0111L292.209 58.463Z" fill="#2B2E3A" />
        <path d="M285.281 21.155C285.281 21.155 245.275 16.1804 239.31 28.251C234.631 37.688 239.989 46.7958 242.561 58.6104C244.49 67.4256 244.811 73.6072 245.668 75.0703C249.383 81.6542 258.849 87.5066 263.278 87.3603C273.065 87.0311 281.459 78.5817 284.531 72.4001C286.245 68.8887 286.709 58.208 285.888 45.6619C285.209 34.9081 286.959 25.1785 285.281 21.155Z" fill="#FAC2A8" />
        <path d="M267.542 47.6084C268.216 47.4568 268.646 46.7901 268.503 46.1192C268.359 45.4483 267.696 45.0273 267.021 45.1788C266.347 45.3303 265.917 45.997 266.06 46.6679C266.204 47.3388 266.867 47.7599 267.542 47.6084Z" fill="#31374C" />
        <path d="M267.683 46.1319C267.875 46.0843 267.992 45.8866 267.946 45.6905C267.899 45.4943 267.706 45.3739 267.515 45.4216C267.323 45.4693 267.205 45.6669 267.252 45.863C267.298 46.0592 267.491 46.1796 267.683 46.1319Z" fill="white" />
        <path opacity="0.2" d="M244.061 55.6452C244.061 56.5231 245.489 57.218 247.24 57.1815C248.99 57.1449 250.383 56.4133 250.383 55.5355C250.383 54.6576 248.954 53.9627 247.204 53.9992C245.454 54.0358 244.061 54.7674 244.061 55.6452Z" fill="#EF3F54" />
        <path opacity="0.2" d="M266.063 52.5728C266.456 53.4872 268.278 53.5603 270.1 52.6825C271.921 51.8412 273.064 50.4147 272.671 49.5003C272.278 48.5858 270.457 48.5127 268.635 49.3905C266.778 50.2318 265.635 51.6583 266.063 52.5728Z" fill="#EF3F54" />
        <path d="M247.791 51.556C248.466 51.4045 248.896 50.7378 248.752 50.0669C248.608 49.396 247.945 48.975 247.271 49.1265C246.596 49.278 246.166 49.9447 246.31 50.6156C246.453 51.2865 247.117 51.7075 247.791 51.556Z" fill="#31374C" />
        <path d="M247.932 50.0776C248.124 50.0299 248.242 49.8323 248.195 49.6361C248.149 49.44 247.956 49.3196 247.764 49.3673C247.572 49.4149 247.455 49.6126 247.501 49.8087C247.548 50.0049 247.741 50.1252 247.932 50.0776Z" fill="white" />
        <path d="M240.525 42.807C241.632 41.161 243.025 39.8442 246.026 39.4053C247.597 39.3687 249.24 39.1858 247.669 37.7227C244.99 35.5281 239.096 39.2224 238.882 43.6117C238.596 45.5138 239.918 44.0141 240.525 42.807Z" fill="#2B2E3A" />
        <path d="M270.386 37.1008C268.885 35.7841 267.207 34.9062 264.206 35.272C262.67 35.6377 261.063 35.9304 262.206 34.1015C264.242 31.2485 270.85 33.2968 272.172 37.43C272.957 39.2223 271.314 38.125 270.386 37.1008Z" fill="#2B2E3A" />
        <path opacity="0.6" d="M258.242 38.7491C258.242 38.7491 255.956 42.1509 250.705 42.7727C250.705 42.7727 255.992 50.4906 253.384 61.2078C253.384 61.2078 259.135 63.8048 263.314 58.5376C263.278 58.5376 257.992 49.4664 258.242 38.7491Z" fill="url(#paint0_linear_0_1)" />
        <path d="M284.138 55.4273C280.423 49.4286 281.923 42.9178 277.923 36.5899C274.922 31.908 274.279 23.422 276.03 20.4958C276.03 20.4958 286.424 16.9478 286.995 17.277C290.389 19.2522 294.996 29.6036 293.175 50.6722L284.138 55.4273Z" fill="#2B2E3A" />
        <path d="M284.851 52.6833C284.851 52.6833 285.851 46.648 291.031 48.3672C296.21 50.1229 296.781 65.449 285.066 62.9251C285.066 62.9251 283.994 58.9747 284.851 52.6833Z" fill="#FAC2A8" />
        <path d="M291.567 52.2461C290.96 51.9169 290.246 51.6974 289.567 51.734C288.888 51.734 288.245 52.0998 287.853 52.6484C287.46 53.1971 287.21 53.8189 287.031 54.4773C286.852 55.1357 286.781 55.8307 286.71 56.4891L286.46 56.2696C287.138 56.1599 287.817 56.233 288.424 56.5988C289.031 56.928 289.388 57.5864 289.46 58.2448C289.531 58.574 289.46 58.9032 289.388 59.2324C289.281 59.5616 289.067 59.8176 288.817 60.0371C288.317 60.4395 287.71 60.6955 287.067 60.8052C287.674 60.6223 288.245 60.3297 288.674 59.8908C288.888 59.6713 289.067 59.4153 289.138 59.1592C289.21 58.8666 289.246 58.6106 289.174 58.318C289.067 57.7327 288.746 57.2206 288.245 56.9646C287.745 56.672 287.102 56.6354 286.567 56.7451L286.317 56.7817L286.352 56.5257C286.424 55.8307 286.531 55.1357 286.71 54.4407C286.888 53.7458 287.174 53.0508 287.638 52.5021C288.103 51.9169 288.853 51.5511 289.603 51.5877C290.317 51.5145 290.996 51.8071 291.567 52.2461Z" fill="#DC918B" />
        <path d="M253.347 61.1697C253.347 61.1697 259.205 68.0461 263.277 58.4995C263.277 58.5361 259.348 61.0965 253.347 61.1697Z" fill="#DC918B" />
        <path d="M232.274 20.6411C235.667 16.1421 241.954 7.21716 250.991 6.0101C255.491 5.49801 255.956 6.52219 255.956 6.52219C255.491 5.86379 253.741 3.59598 253.741 3.59598C261.278 6.04668 285.995 -2.0004 286.96 17.3126C288.46 18.5562 289.389 19.5804 289.496 20.0925C290.032 22.5432 276.923 36.0769 276.994 29.8221C277.28 24.5184 277.601 23.8234 275.458 22.7261C271.565 20.7143 265.493 21.4093 252.312 27.5909C246.133 30.4805 234.631 34.9064 224.987 26.1278C224.987 26.0912 228.881 25.1402 232.274 20.6411Z" fill="#2B2E3A" />
        <path d="M251.526 68.3042C257.92 72.218 255.205 78.1801 263.599 77.0828C271.564 75.1808 273.1 61.391 273.1 61.391C261.956 71.8156 251.526 68.3042 251.526 68.3042Z" fill="#31374C" />
        <path d="M270.03 71.412C263.814 72.3996 260.921 74.8868 259.6 76.9352C260.564 77.2644 261.85 77.3375 263.6 77.1181C266.529 76.3865 268.601 74.0821 270.03 71.412Z" fill="#F97A7A" />
        <path d="M251.526 68.3042C252.883 69.1089 253.812 70.0233 254.526 70.9378C254.848 71.3401 265.885 70.9012 272.171 65.8535C272.85 63.3296 273.064 61.391 273.064 61.391C261.956 71.8156 251.526 68.3042 251.526 68.3042Z" fill="white" />
        <path d="M252.348 68.8531C252.633 69.036 252.883 69.2554 253.133 69.4749C253.383 69.6944 253.633 69.9138 253.883 70.1699C254.134 70.4259 254.348 70.682 254.562 70.938C255.419 71.9988 256.062 73.2058 256.777 74.3397C257.134 74.925 257.527 75.4736 257.991 75.9126C258.241 76.132 258.491 76.3149 258.777 76.4978C259.063 76.6441 259.348 76.7904 259.67 76.8636C259.813 76.9002 259.991 76.9367 260.134 76.9733C260.277 77.0099 260.456 77.0465 260.599 77.0465C260.92 77.083 261.242 77.1196 261.563 77.1196C261.885 77.1196 262.206 77.1196 262.563 77.083C262.885 77.083 263.206 77.0099 263.528 76.9733C265.028 76.6075 266.421 75.7297 267.528 74.5958C268.635 73.4619 269.493 72.1085 270.207 70.6454C270.921 69.2189 271.457 67.6826 271.886 66.1463C272.1 65.3782 272.314 64.5735 272.457 63.8054C272.636 63.0007 272.779 62.2326 272.886 61.4278L273.172 61.5742L272.064 62.5617C271.672 62.8909 271.314 63.2201 270.921 63.5128C270.529 63.8054 270.136 64.1346 269.707 64.3906C269.314 64.6832 268.885 64.9759 268.457 65.2319C268.028 65.488 267.6 65.744 267.171 66C266.742 66.2561 266.278 66.4755 265.849 66.695C265.385 66.9145 264.956 67.0974 264.492 67.2803C264.028 67.4631 263.563 67.646 263.099 67.7923C262.635 67.9387 262.17 68.085 261.67 68.2313C261.206 68.3776 260.706 68.4873 260.241 68.5605C259.741 68.6702 259.277 68.7434 258.777 68.8165C258.277 68.8897 257.813 68.9262 257.313 68.9628C256.312 68.9994 255.348 68.9994 254.348 68.9262C253.383 68.8165 252.383 68.6702 251.455 68.3776C251.776 68.4873 252.098 68.6702 252.348 68.8531ZM254.419 68.7799C255.384 68.8531 256.384 68.8531 257.348 68.7434C257.848 68.7068 258.313 68.6336 258.813 68.5605C259.313 68.4873 259.777 68.4142 260.241 68.3044C260.706 68.1947 261.206 68.085 261.67 67.9386C262.135 67.7923 262.599 67.646 263.063 67.4997C263.528 67.3168 263.992 67.1705 264.421 66.9511C264.885 66.7682 265.314 66.5487 265.742 66.3292C266.171 66.1098 266.599 65.8903 267.028 65.6343C267.457 65.3782 267.885 65.1588 268.278 64.8661C268.707 64.6101 269.1 64.3175 269.493 64.0248C269.886 63.7688 270.279 63.4396 270.671 63.147C271.064 62.8544 271.422 62.5252 271.814 62.196L272.922 61.2084L273.279 60.8792L273.207 61.3547C273.1 62.1594 272.957 62.9641 272.815 63.7688C272.636 64.5735 272.457 65.3782 272.243 66.1463C271.814 67.7192 271.243 69.2554 270.529 70.7185C269.814 72.1816 268.921 73.5716 267.778 74.7421C266.635 75.9126 265.206 76.827 263.599 77.1562C263.278 77.1928 262.92 77.2294 262.599 77.2294C262.277 77.2659 261.92 77.2659 261.599 77.2659C261.277 77.2659 260.92 77.2294 260.599 77.1928C260.42 77.1928 260.277 77.1562 260.099 77.1196C259.92 77.083 259.777 77.0465 259.599 76.9733C259.277 76.8636 258.956 76.7173 258.67 76.571C258.384 76.3881 258.098 76.2052 257.848 75.9491C257.348 75.4736 256.955 74.925 256.598 74.3397C256.241 73.7545 255.919 73.1692 255.598 72.584C255.277 71.9988 254.884 71.4501 254.491 70.9014C254.276 70.6454 254.062 70.3893 253.848 70.1333C253.633 69.8773 253.383 69.6578 253.133 69.4383C252.883 69.2189 252.633 68.9994 252.348 68.8165C252.098 68.597 251.812 68.4142 251.526 68.2313C252.455 68.5605 253.419 68.7068 254.419 68.7799Z" fill="#DC918B" />
        <path d="M270.742 61.3904C270.742 61.3904 271.064 61.2441 271.492 61.1709C271.6 61.1344 271.742 61.1344 271.85 61.0978C271.992 61.0612 272.135 61.0978 272.243 61.0612C272.385 61.0612 272.528 61.0612 272.671 61.0978C272.743 61.0978 272.814 61.1344 272.885 61.1344L273.1 61.2075C273.243 61.2441 273.35 61.3172 273.493 61.3904C273.6 61.4636 273.743 61.5733 273.85 61.6465C273.957 61.7562 274.064 61.8294 274.171 61.9391C274.243 62.0488 274.35 62.122 274.421 62.2317C274.493 62.3049 274.564 62.4146 274.636 62.4878C274.707 62.5609 274.743 62.6341 274.779 62.7072C274.85 62.817 274.921 62.8901 274.921 62.8901C274.921 62.8901 274.886 62.817 274.85 62.6707C274.779 62.5243 274.743 62.3415 274.6 62.122C274.529 62.0122 274.457 61.9025 274.386 61.7562C274.279 61.6465 274.207 61.5367 274.1 61.3904C273.993 61.2807 273.85 61.1709 273.707 61.0612C273.564 60.988 273.421 60.8783 273.243 60.8417L272.993 60.7686C272.921 60.732 272.814 60.732 272.743 60.732C272.564 60.6954 272.421 60.732 272.243 60.732C272.1 60.7686 271.921 60.7686 271.778 60.8051C271.635 60.8417 271.528 60.8783 271.385 60.9515C270.992 61.1344 270.742 61.3904 270.742 61.3904Z" fill="#DC918B" />
        <path d="M264.349 17.2742C264.349 17.2742 266.17 21.2246 261.17 25.4676C255.526 30.2227 248.311 30.8811 248.311 30.8811C248.311 30.8811 251.597 28.3938 250.99 25.6871C250.097 21.7001 257.241 15.1162 257.241 15.1162L264.349 17.2742Z" fill="#2B2E3A" />
        <path d="M247.954 6.74197C247.954 6.74197 245.561 7.43694 236.524 13.1064C232.738 15.484 229.916 11.5336 229.916 11.5336C229.916 11.5336 227.487 21.2632 236.631 20.239C245.775 19.1783 247.954 6.74197 247.954 6.74197Z" fill="#2B2E3A" />
        <path d="M277.173 85.1281C277.173 85.1281 272.851 87.5056 270.35 87.6885C267.85 87.8714 268.35 93.9432 268.172 95.5892C268.172 95.5892 273.994 94.748 276.208 93.0288C278.423 91.3097 279.209 89.9563 279.209 89.9563C279.209 89.9563 279.494 86.4083 279.137 84.9452C279.03 84.5794 277.137 83.5552 277.137 83.5552L277.173 85.1281Z" fill="#31374C" />
        <path d="M266.136 87.0281C266.136 87.0281 265.564 87.2842 265.171 87.8328C264.779 88.3815 265.671 92.0759 265.529 92.9903C265.386 93.9048 267.457 95.4045 267.457 95.4045L267.958 94.9655L267.672 88.8205C267.672 88.4181 267.386 88.0523 266.993 87.9426L266.957 86.8452L266.136 87.0281Z" fill="#31374C" />
        <path d="M268.492 95.4439L268.278 95.3707V94.8586L267.742 94.6758L267.492 95.0781L267.242 95.0415L266.385 97.1264C266.278 97.3825 266.421 97.6751 266.671 97.7482L267.421 98.0043C267.671 98.0774 267.957 97.9311 268.028 97.6385L268.492 95.4439Z" fill="#E1E4F4" />
        <path d="M275.245 103.929C275.138 103.929 275.066 103.966 274.995 104.075L273.959 105.356L273.673 104.039C273.638 103.893 273.566 103.856 273.495 103.856C273.388 103.856 273.316 103.893 273.245 104.002L272.28 105.685L272.745 105.721L273.388 104.551L273.673 105.794L274.066 105.831L274.995 104.697L274.923 105.904L275.316 105.941L275.424 104.258C275.424 104.039 275.316 103.966 275.245 103.929Z" fill="white" />
        <path d="M271.779 104.039L271.279 105.612H271.708L272.208 104.039H271.779Z" fill="white" />
        <path d="M270.994 104.44C271.03 104.221 270.923 103.965 270.494 103.965L269.672 103.892L269.208 105.465L269.637 105.501L269.815 104.916H270.03L270.387 105.538L270.851 105.574L270.458 104.916C270.815 104.843 270.958 104.623 270.994 104.44ZM270.173 104.66L269.851 104.623L269.994 104.148L270.315 104.184C270.494 104.184 270.565 104.294 270.53 104.44C270.53 104.587 270.387 104.66 270.173 104.66Z" fill="white" />
        <path d="M277.102 105.977L277.531 106.013L277.245 104.514C277.209 104.331 277.102 104.294 276.995 104.294C276.924 104.294 276.852 104.331 276.781 104.404L275.638 105.867L276.066 105.904L276.281 105.575L277.031 105.611L277.102 105.977ZM276.459 105.355L276.888 104.806L276.995 105.392L276.459 105.355Z" fill="white" />
        <path d="M278.851 105.795C278.494 105.758 278.316 105.539 278.351 105.283C278.423 104.953 278.744 104.734 279.173 104.771C279.316 104.771 279.459 104.807 279.602 104.844L279.709 104.514C279.602 104.478 279.387 104.441 279.244 104.441C278.494 104.405 278.03 104.697 277.923 105.209C277.851 105.685 278.137 106.014 278.816 106.051C278.959 106.051 279.066 106.051 279.244 106.051L279.352 105.722C279.173 105.795 279.03 105.831 278.851 105.795Z" fill="white" />
        <path d="M260.92 120.057C260.92 120.057 260.241 119.435 260.169 118.923C260.098 118.411 260.598 117.606 260.598 117.606C260.598 117.606 260.169 116.984 260.384 116.216C260.598 115.411 261.098 115.082 261.098 115.082C261.098 115.082 260.455 114.46 260.67 113.729C260.884 112.961 261.705 112.705 262.777 112.851C262.777 112.851 268.778 112.961 269.564 113.656C270.671 114.607 272.1 117.387 272.1 117.387C273.1 118.338 272.778 122.617 272.778 122.617L270.064 122.251C269.242 123.129 263.598 123.056 263.063 122.8C261.884 122.288 261.598 122.215 260.848 121.556C260.348 121.081 260.92 120.057 260.92 120.057Z" fill="#FAC2A8" />
        <path d="M266.92 108.28C266.849 109.267 267.242 109.779 268.349 112.011C268.813 112.962 270.099 112.486 271.457 116.107C271.814 117.095 265.242 114.315 265.634 113.913C266.42 113.035 264.599 111.389 264.634 109.377C264.634 107.621 267.063 106.048 266.92 108.28Z" fill="#FAC2A8" />
        <path d="M262.098 112.888C262.098 112.888 265.277 112.632 265.813 113.803C266.348 114.937 265.848 115.522 265.205 115.595C265.205 115.595 265.706 115.997 265.598 116.839C265.491 117.68 264.777 117.79 264.027 117.899C263.277 118.009 261.276 117.68 261.276 117.68L262.098 112.888Z" fill="#FAC2A8" />
        <path d="M271.601 116.182L276.173 116.986L275.423 123.278L270.994 122.583L271.601 116.182Z" fill="#EF3F54" />
        <path d="M274.922 116.766C276.136 113.803 280.708 115.705 283.03 115.303C282.137 111.718 281.744 107.987 281.744 107.987L280.065 104.366C280.244 96.0265 282.565 92.515 285.709 91.8201C285.709 91.8201 289.245 93.2466 290.316 98.404C290.638 99.9769 293.96 121.814 290.424 124.959C287.245 127.776 277.458 127.154 274.529 124.191L274.922 116.766Z" fill="#BD1A3B" />
        <path d="M274.921 116.766C275.064 116.4 275.243 116.071 275.528 115.815C275.814 115.559 276.136 115.376 276.493 115.23C277.207 114.974 277.957 114.937 278.672 114.937C279.422 114.974 280.136 115.047 280.85 115.083C281.565 115.157 282.315 115.193 282.994 115.083L282.851 115.303C282.529 114.096 282.279 112.889 282.065 111.645C281.851 110.438 281.672 109.194 281.529 107.951L281.565 108.06C280.993 106.853 280.422 105.61 279.886 104.403L279.85 104.366V104.33C279.886 103.086 279.958 101.842 280.136 100.599C280.279 99.355 280.529 98.148 280.922 96.9409C281.029 96.6483 281.136 96.3557 281.243 96.0631C281.351 95.7704 281.493 95.4778 281.636 95.2218C281.779 94.9292 281.922 94.6731 282.101 94.4171C282.279 94.161 282.458 93.905 282.672 93.6855C283.065 93.21 283.529 92.8077 284.065 92.4785C284.601 92.1493 285.173 91.9298 285.78 91.8201C285.208 91.9664 284.637 92.2224 284.137 92.5516C283.637 92.9174 283.208 93.3197 282.851 93.7953C282.101 94.7463 281.636 95.9168 281.279 97.0507C280.922 98.2211 280.743 99.4282 280.6 100.672C280.458 101.879 280.386 103.123 280.35 104.366L280.315 104.256C280.886 105.463 281.422 106.634 281.958 107.841L281.994 107.914V107.951C282.136 109.158 282.315 110.401 282.494 111.608C282.708 112.816 282.958 114.023 283.208 115.23L283.244 115.413L283.065 115.449C282.315 115.559 281.565 115.486 280.85 115.376C280.136 115.303 279.386 115.193 278.672 115.157C277.957 115.12 277.207 115.12 276.528 115.303C275.814 115.595 275.207 116.071 274.921 116.766Z" fill="#E0363C" />
        <path d="M290.46 124.962C289.959 125.437 289.317 125.803 288.674 126.059C288.031 126.352 287.316 126.535 286.638 126.644C285.245 126.9 283.816 127.01 282.423 126.937C281.03 126.864 279.601 126.681 278.244 126.279C277.565 126.096 276.886 125.84 276.243 125.51C275.6 125.181 274.993 124.815 274.457 124.267L274.386 124.194V124.12C274.422 123.499 274.457 122.877 274.493 122.255L274.636 120.39C274.672 119.768 274.743 119.146 274.779 118.524C274.815 117.902 274.886 117.28 274.922 116.659C274.922 117.28 274.922 117.902 274.886 118.524C274.886 119.146 274.886 119.768 274.85 120.39L274.815 122.255C274.779 122.877 274.779 123.499 274.743 124.12L274.672 123.974C275.672 124.925 276.993 125.437 278.315 125.803C279.637 126.169 281.03 126.388 282.423 126.461C283.816 126.535 285.209 126.535 286.566 126.315C287.959 126.205 289.317 125.84 290.46 124.962Z" fill="#E0363C" />
    </g>
    <defs>
        <filter id="filter0_d_0_1" x="0" y="0" width="316" height="168" filterUnits="userSpaceOnUse" color-interpolation-filters="sRGB">
            <feFlood flood-opacity="0" result="BackgroundImageFix" />
            <feColorMatrix in="SourceAlpha" type="matrix" values="0 0 0 0 0 0 0 0 0 0 0 0 0 0 0 0 0 0 127 0" result="hardAlpha" />
            <feOffset />
            <feGaussianBlur stdDeviation="5" />
            <feColorMatrix type="matrix" values="0 0 0 0 0.64 0 0 0 0 0.672 0 0 0 0 0.8 0 0 0 0.12 0" />
            <feBlend mode="normal" in2="BackgroundImageFix" result="effect1_dropShadow_0_1" />
            <feBlend mode="normal" in="SourceGraphic" in2="effect1_dropShadow_0_1" result="shape" />
        </filter>
        <linearGradient id="paint0_linear_0_1" x1="255.546" y1="39.1083" x2="258.508" y2="61.6766" gradientUnits="userSpaceOnUse">
            <stop stop-color="#FAC2A8" />
            <stop offset="0.2651" stop-color="#F7BCA5" />
            <stop offset="0.6038" stop-color="#EDAD9B" />
            <stop offset="0.981" stop-color="#DD938C" />
            <stop offset="1" stop-color="#DC918B" />
        </linearGradient>
    </defs>
</svg>
    